<svg version="1.1" xmlns="http://www.w3.org/2000/svg" x="0px"
	 y="0px" viewBox="0 0 283.46 283.46" style="enable-background:new 0 0 283.46 283.46;" xml:space="preserve">
<g fill="skyblue">
	<path class="st0" d="M148.17,38.82c-61.53,0-111.41,41.39-111.41,92.45c0,19.84,7.56,38.21,20.38,53.27
		c-0.49,2.33-6.07,27.78-18.91,39.93c-4.02,3.81-6.86,9.92,0.63,11.58c5.55,1.23,11.6,0.36,17.18-0.34
		c5.62-0.71,11.16-1.98,16.57-3.68c10.7-3.37,20.8-8.36,30.7-13.56c0.46-0.24,2.5-1.68,2.93-1.54c12.94,4.37,27.09,6.79,41.92,6.79
		c61.53,0,111.41-41.39,111.41-92.45C259.57,80.21,209.69,38.82,148.17,38.82z"/>
</g>
<g fill="white">
	<path class="st1" d="M135.37,168.52c-2.46,0-4.83-0.98-6.57-2.72l-30.7-30.7c-3.63-3.63-3.63-9.52,0-13.15
		c3.63-3.63,9.52-3.63,13.15,0l23.98,23.98l47.15-49.22c3.55-3.71,9.44-3.83,13.15-0.28c3.71,3.55,3.83,9.44,0.28,13.15
		l-53.72,56.08c-1.73,1.81-4.11,2.84-6.61,2.87C135.44,168.52,135.41,168.52,135.37,168.52z"/>
</g>
</svg>